<?xml version="1.0" encoding="utf-8"?>
<!-- Generator: Adobe Illustrator 27.5.0, SVG Export Plug-In . SVG Version: 6.00 Build 0)  -->
<svg version="1.1" xmlns="http://www.w3.org/2000/svg" xmlns:xlink="http://www.w3.org/1999/xlink" x="0px" y="0px"
	 viewBox="0 0 750 500" style="enable-background:new 0 0 750 500;" xml:space="preserve">
<g id="BACKGROUND">
	<g>
		
			<rect x="-62.5" y="62.5" transform="matrix(-1.836970e-16 1 -1 -1.836970e-16 437.5 62.5)" style="fill:#F2F2F2;" width="500" height="375"/>
		
			<rect x="312.5" y="62.5" transform="matrix(-1.836970e-16 1 -1 -1.836970e-16 812.5 -312.5)" style="fill:#61A3B4;" width="500" height="375"/>
	</g>
</g>
<g id="OBJECTS">
	<g>
		<linearGradient id="SVGID_1_" gradientUnits="userSpaceOnUse" x1="624.1093" y1="270.4668" x2="624.1093" y2="270.4668">
			<stop  offset="0.0928" style="stop-color:#61A3B4"/>
			<stop  offset="1" style="stop-color:#7FB4C2"/>
		</linearGradient>
		<path style="fill:none;stroke:url(#SVGID_1_);stroke-width:0.8116;stroke-miterlimit:10;" d="M624.109,270.467"/>
		<g>
			<g>
				<g>
					
						<linearGradient id="SVGID_00000000208032385886965360000005126768628770187408_" gradientUnits="userSpaceOnUse" x1="504.7858" y1="210.9719" x2="551.2083" y2="269.5127">
						<stop  offset="0" style="stop-color:#96C1CD"/>
						<stop  offset="0.4997" style="stop-color:#61A3B4"/>
						<stop  offset="1" style="stop-color:#1B7A93"/>
					</linearGradient>
					<path style="fill:url(#SVGID_00000000208032385886965360000005126768628770187408_);" d="M562.5,210.503
						c0,0-21.235-29.649-61.651-25.622l-28.088,58.981c58.147-5.793,89.917,39.857,89.917,39.857L562.5,210.503z"/>
				</g>
			</g>
			<g>
				
					<linearGradient id="SVGID_00000114063773933258339610000001710179633528988075_" gradientUnits="userSpaceOnUse" x1="472.0305" y1="236.9466" x2="518.4526" y2="295.4869">
					<stop  offset="0" style="stop-color:#96C1CD"/>
					<stop  offset="0.4997" style="stop-color:#61A3B4"/>
					<stop  offset="1" style="stop-color:#1B7A93"/>
				</linearGradient>
				<polygon style="fill:url(#SVGID_00000114063773933258339610000001710179633528988075_);" points="472.761,239.767 
					472.761,243.862 479.865,240.832 477.009,237.976 				"/>
			</g>
		</g>
		<g>
			
				<linearGradient id="SVGID_00000178915529654084763170000017667507675084594063_" gradientUnits="userSpaceOnUse" x1="627.338" y1="205.6886" x2="563.5769" y2="273.7378">
				<stop  offset="0" style="stop-color:#FFA72F"/>
				<stop  offset="1" style="stop-color:#DF4B2D"/>
			</linearGradient>
			<path style="fill:url(#SVGID_00000178915529654084763170000017667507675084594063_);" d="M562.678,283.719
				c0,0,31.414-45.649,89.561-39.857l-28.088-58.981c-40.416-4.026-61.651,25.622-61.651,25.622L562.678,283.719z"/>
			
				<linearGradient id="SVGID_00000111880629651414088880000004568134070598489509_" gradientUnits="userSpaceOnUse" x1="656.6599" y1="233.1631" x2="592.8994" y2="301.2117">
				<stop  offset="0" style="stop-color:#FFA72F"/>
				<stop  offset="1" style="stop-color:#DF4B2D"/>
			</linearGradient>
			<polygon style="fill:url(#SVGID_00000111880629651414088880000004568134070598489509_);" points="652.239,243.862 
				652.239,239.767 645.71,238.869 			"/>
		</g>
		<g>
			<path style="fill:none;stroke:#F9FBFC;stroke-width:1.5571;stroke-miterlimit:10;" d="M562.5,204.737"/>
		</g>
		<g>
			
				<linearGradient id="SVGID_00000075851523446414582550000017650608621081696898_" gradientUnits="userSpaceOnUse" x1="489.0047" y1="228.4211" x2="545.4948" y2="228.7007">
				<stop  offset="0" style="stop-color:#FFA72F"/>
				<stop  offset="1" style="stop-color:#DF4B2D"/>
			</linearGradient>
			<path style="fill:url(#SVGID_00000075851523446414582550000017650608621081696898_);" d="M562.5,206.408
				c0,0-21.235-29.649-61.651-25.622l-28.088,58.981c58.147-5.793,89.917,37.127,89.917,37.127L562.5,206.408z"/>
		</g>
		<g>
			
				<linearGradient id="SVGID_00000035516608831653964210000018114241619025543604_" gradientUnits="userSpaceOnUse" x1="654.7512" y1="201.5228" x2="563.3972" y2="236.2001">
				<stop  offset="0" style="stop-color:#96C1CD"/>
				<stop  offset="0.4997" style="stop-color:#61A3B4"/>
				<stop  offset="1" style="stop-color:#1B7A93"/>
			</linearGradient>
			<path style="fill:url(#SVGID_00000035516608831653964210000018114241619025543604_);" d="M562.678,276.894
				c0,0,31.414-42.919,89.561-37.127l-28.088-58.981c-40.416-4.026-61.651,25.622-61.651,25.622L562.678,276.894z"/>
		</g>
		<g>
			<path style="fill:#C3D3DD;" d="M562.5,205.387c0,0-17.789-27.469-51.645-23.739l-23.529,54.646
				c48.71-5.367,75.324,34.398,75.324,34.398L562.5,205.387z"/>
		</g>
		<path style="fill:#C3D3DD;" d="M562.649,270.692c0,0,26.316-39.765,75.026-34.398l-23.529-54.646
			c-33.856-3.73-51.645,23.739-51.645,23.739L562.649,270.692z"/>
		<g>
			
				<linearGradient id="SVGID_00000168106657688749780350000009385539542626327967_" gradientUnits="userSpaceOnUse" x1="519.2095" y1="202.913" x2="566.1914" y2="230.8784">
				<stop  offset="0" style="stop-color:#F2F2F2"/>
				<stop  offset="1" style="stop-color:#CEDAE0"/>
			</linearGradient>
			<path style="fill:url(#SVGID_00000168106657688749780350000009385539542626327967_);" d="M562.5,194.194
				c0,0-16.804-32.178-48.786-27.808l-22.227,64.012c46.013-6.287,71.154,40.293,71.154,40.293L562.5,194.194z"/>
		</g>
		
			<linearGradient id="SVGID_00000071538548342034618400000014478467395615825081_" gradientUnits="userSpaceOnUse" x1="622.8464" y1="206.3035" x2="558.8057" y2="224.7607">
			<stop  offset="0" style="stop-color:#DAE3E8"/>
			<stop  offset="0.5571" style="stop-color:#CEDAE0"/>
			<stop  offset="1" style="stop-color:#A5B7C6"/>
		</linearGradient>
		<path style="fill:url(#SVGID_00000071538548342034618400000014478467395615825081_);" d="M562.641,270.692
			c0,0,24.859-46.58,70.872-40.293l-22.227-64.012c-31.982-4.37-48.786,27.808-48.786,27.808L562.641,270.692z"/>
		<g>
			<g>
				<path style="fill:none;stroke:#DCE8EF;stroke-linecap:round;stroke-linejoin:round;stroke-miterlimit:10;" d="M606.622,177.963
					c-20.79-3.597-38.039,21.682-38.039,21.682"/>
				<path style="fill:none;stroke:#DCE8EF;stroke-linecap:round;stroke-linejoin:round;stroke-miterlimit:10;" d="M611.128,191.488
					c-21.047-5.342-42.545,21.975-42.545,21.975"/>
				<path style="fill:none;stroke:#DCE8EF;stroke-linecap:round;stroke-linejoin:round;stroke-miterlimit:10;" d="M616.406,204.876
					c-24.395-5.214-47.823,22.404-47.823,22.404"/>
				<path style="fill:none;stroke:#DCE8EF;stroke-linecap:round;stroke-linejoin:round;stroke-miterlimit:10;" d="M621.169,218.65
					c-24.937-3.407-52.586,22.447-52.586,22.447"/>
			</g>
			<g>
				<path style="fill:none;stroke:#DCE8EF;stroke-linecap:round;stroke-linejoin:round;stroke-miterlimit:10;" d="M518.378,177.963
					c20.79-3.597,38.039,21.682,38.039,21.682"/>
				<path style="fill:none;stroke:#DCE8EF;stroke-linecap:round;stroke-linejoin:round;stroke-miterlimit:10;" d="M513.872,191.488
					c21.047-5.342,42.545,21.975,42.545,21.975"/>
				<path style="fill:none;stroke:#DCE8EF;stroke-linecap:round;stroke-linejoin:round;stroke-miterlimit:10;" d="M508.594,204.876
					c24.395-5.214,47.823,22.404,47.823,22.404"/>
				<path style="fill:none;stroke:#DCE8EF;stroke-linecap:round;stroke-linejoin:round;stroke-miterlimit:10;" d="M503.831,218.65
					c24.937-3.407,52.586,22.447,52.586,22.447"/>
			</g>
		</g>
	</g>
	<g>
		
			<linearGradient id="SVGID_00000005227645469305381520000002916903498905066896_" gradientUnits="userSpaceOnUse" x1="221.3041" y1="169.0889" x2="215.2739" y2="208.1266">
			<stop  offset="0" style="stop-color:#FFA72F"/>
			<stop  offset="1" style="stop-color:#DF4B2D"/>
		</linearGradient>
		<polygon style="fill:url(#SVGID_00000005227645469305381520000002916903498905066896_);" points="187.506,217.499 
			229.529,177.532 244.698,188.029 		"/>
		
			<linearGradient id="SVGID_00000106839834619919415960000009718674283564042680_" gradientUnits="userSpaceOnUse" x1="156.4868" y1="167.8703" x2="159.6821" y2="213.8829">
			<stop  offset="0" style="stop-color:#96C1CD"/>
			<stop  offset="0.4997" style="stop-color:#61A3B4"/>
			<stop  offset="1" style="stop-color:#1B7A93"/>
		</linearGradient>
		<polygon style="fill:url(#SVGID_00000106839834619919415960000009718674283564042680_);" points="187.506,217.499 
			145.483,177.532 130.314,188.029 		"/>
		<g>
			
				<linearGradient id="SVGID_00000000186968524891169150000004032762040018460089_" gradientUnits="userSpaceOnUse" x1="212.7157" y1="202.4017" x2="222.7683" y2="260.6617">
				<stop  offset="0" style="stop-color:#3F5E66"/>
				<stop  offset="1" style="stop-color:#000000"/>
			</linearGradient>
			<polygon style="fill:url(#SVGID_00000000186968524891169150000004032762040018460089_);" points="248.059,188.555 
				248.059,274.936 187.499,274.936 187.499,219.425 			"/>
			
				<linearGradient id="SVGID_00000109713348120322064950000000998213281680727475_" gradientUnits="userSpaceOnUse" x1="126.9391" y1="231.7454" x2="187.4989" y2="231.7454">
				<stop  offset="0" style="stop-color:#31525B"/>
				<stop  offset="1" style="stop-color:#000000"/>
			</linearGradient>
			<polygon style="fill:url(#SVGID_00000109713348120322064950000000998213281680727475_);" points="187.499,219.425 
				187.499,274.936 126.939,274.936 126.939,188.555 			"/>
		</g>
		
			<linearGradient id="SVGID_00000153679100539668050550000000839226238419609486_" gradientUnits="userSpaceOnUse" x1="194.6569" y1="204.6056" x2="228.0555" y2="252.6997">
			<stop  offset="0" style="stop-color:#627178"/>
			<stop  offset="0.3765" style="stop-color:#505D63"/>
			<stop  offset="1" style="stop-color:#2B3438"/>
		</linearGradient>
		<polygon style="fill:url(#SVGID_00000153679100539668050550000000839226238419609486_);" points="240.516,200.895 
			240.516,274.936 195.062,274.936 195.062,224.066 		"/>
		
			<linearGradient id="SVGID_00000085221579529529484060000014356146821080459408_" gradientUnits="userSpaceOnUse" x1="146.5826" y1="214.0969" x2="165.6736" y2="278.8199">
			<stop  offset="0" style="stop-color:#627178"/>
			<stop  offset="0.3765" style="stop-color:#505D63"/>
			<stop  offset="1" style="stop-color:#2B3438"/>
		</linearGradient>
		<polygon style="fill:url(#SVGID_00000085221579529529484060000014356146821080459408_);" points="179.743,224.066 
			179.743,274.936 134.308,274.936 134.308,200.895 		"/>
		
			<linearGradient id="SVGID_00000119809496720703919500000009179453272776543893_" gradientUnits="userSpaceOnUse" x1="187.5041" y1="203.0729" x2="248.0609" y2="203.0729">
			<stop  offset="0" style="stop-color:#31525B"/>
			<stop  offset="1" style="stop-color:#000000"/>
		</linearGradient>
		<polygon style="fill:url(#SVGID_00000119809496720703919500000009179453272776543893_);" points="187.504,219.434 
			187.504,216.969 246.415,186.712 248.061,188.564 		"/>
		
			<linearGradient id="SVGID_00000034075684426647839940000003211004205117576370_" gradientUnits="userSpaceOnUse" x1="728.7835" y1="203.0729" x2="789.3403" y2="203.0729" gradientTransform="matrix(-1 0 0 1 916.2876 0)">
			<stop  offset="0" style="stop-color:#31525B"/>
			<stop  offset="1" style="stop-color:#000000"/>
		</linearGradient>
		<polygon style="fill:url(#SVGID_00000034075684426647839940000003211004205117576370_);" points="187.504,219.434 
			187.504,216.969 128.593,186.712 126.947,188.564 		"/>
	</g>
</g>
<g id="TEXTS">
	<g>
		<text transform="matrix(1 0 0 1 444.936 318.7465)"><tspan x="0" y="0" style="fill:#F2F2F2; font-family:'Montserrat-ExtraBold'; font-size:35.3154px;">BOOK</tspan><tspan x="113.468" y="0" style="fill:#F2F2F2; font-family:'Montserrat-Medium'; font-size:35.3154px;">STORE</tspan></text>
		
			<text transform="matrix(1 0 0 1 495.6802 345.6106)" style="fill:#F2F2F2; font-family:'Montserrat-Medium'; font-size:16.4725px;">the tagline here</text>
	</g>
	<g>
		<text transform="matrix(1 0 0 1 69.9362 318.7469)"><tspan x="0" y="0" style="fill:#414042; font-family:'Montserrat-ExtraBold'; font-size:35.3154px;">BOOK</tspan><tspan x="113.468" y="0" style="fill:#414042; font-family:'Montserrat-Medium'; font-size:35.3154px;">STORE</tspan></text>
		
			<text transform="matrix(1 0 0 1 120.6803 345.6111)" style="fill:#414042; font-family:'Montserrat-Medium'; font-size:16.4725px;">the tagline here</text>
	</g>
</g>
</svg>
